<mxfile host="app.diagrams.net" modified="2023-08-28T13:36:15.702Z" agent="Mozilla/5.0 (Windows NT 10.0; Win64; x64) AppleWebKit/537.36 (KHTML, like Gecko) Chrome/116.0.0.0 Safari/537.36" etag="l2nznteUFCAhllI0ag3K" version="21.6.9" type="device">
  <diagram id="C5RBs43oDa-KdzZeNtuy" name="Page-1">
    <mxGraphModel dx="874" dy="478" grid="1" gridSize="10" guides="1" tooltips="1" connect="1" arrows="1" fold="1" page="1" pageScale="1" pageWidth="827" pageHeight="1169" math="0" shadow="0">
      <root>
        <mxCell id="WIyWlLk6GJQsqaUBKTNV-0" />
        <mxCell id="WIyWlLk6GJQsqaUBKTNV-1" parent="WIyWlLk6GJQsqaUBKTNV-0" />
        <mxCell id="gwwIZ51IinvGWYomJ2mv-6" style="edgeStyle=orthogonalEdgeStyle;rounded=0;orthogonalLoop=1;jettySize=auto;html=1;entryX=0.5;entryY=0;entryDx=0;entryDy=0;" edge="1" parent="WIyWlLk6GJQsqaUBKTNV-1" source="gwwIZ51IinvGWYomJ2mv-2" target="gwwIZ51IinvGWYomJ2mv-3">
          <mxGeometry relative="1" as="geometry" />
        </mxCell>
        <mxCell id="gwwIZ51IinvGWYomJ2mv-2" value="" style="ellipse;whiteSpace=wrap;html=1;aspect=fixed;fillColor=#000000;strokeColor=#d6b656;" vertex="1" parent="WIyWlLk6GJQsqaUBKTNV-1">
          <mxGeometry x="380" y="50" width="60" height="60" as="geometry" />
        </mxCell>
        <mxCell id="gwwIZ51IinvGWYomJ2mv-10" style="edgeStyle=orthogonalEdgeStyle;rounded=0;orthogonalLoop=1;jettySize=auto;html=1;" edge="1" parent="WIyWlLk6GJQsqaUBKTNV-1" source="gwwIZ51IinvGWYomJ2mv-3">
          <mxGeometry relative="1" as="geometry">
            <mxPoint x="410" y="220" as="targetPoint" />
          </mxGeometry>
        </mxCell>
        <mxCell id="gwwIZ51IinvGWYomJ2mv-3" value="&quot;Ingrese tres numeros&quot;" style="shape=document;whiteSpace=wrap;html=1;boundedLbl=1;" vertex="1" parent="WIyWlLk6GJQsqaUBKTNV-1">
          <mxGeometry x="355" y="140" width="110" height="60" as="geometry" />
        </mxCell>
        <mxCell id="gwwIZ51IinvGWYomJ2mv-11" value="" style="edgeStyle=orthogonalEdgeStyle;rounded=0;orthogonalLoop=1;jettySize=auto;html=1;" edge="1" parent="WIyWlLk6GJQsqaUBKTNV-1" source="gwwIZ51IinvGWYomJ2mv-4" target="gwwIZ51IinvGWYomJ2mv-5">
          <mxGeometry relative="1" as="geometry" />
        </mxCell>
        <mxCell id="gwwIZ51IinvGWYomJ2mv-4" value="num1, num2, num3" style="shape=parallelogram;perimeter=parallelogramPerimeter;whiteSpace=wrap;html=1;fixedSize=1;" vertex="1" parent="WIyWlLk6GJQsqaUBKTNV-1">
          <mxGeometry x="340" y="230" width="130" height="50" as="geometry" />
        </mxCell>
        <mxCell id="gwwIZ51IinvGWYomJ2mv-14" style="edgeStyle=orthogonalEdgeStyle;rounded=0;orthogonalLoop=1;jettySize=auto;html=1;entryX=0.5;entryY=0;entryDx=0;entryDy=0;" edge="1" parent="WIyWlLk6GJQsqaUBKTNV-1" source="gwwIZ51IinvGWYomJ2mv-5" target="gwwIZ51IinvGWYomJ2mv-12">
          <mxGeometry relative="1" as="geometry" />
        </mxCell>
        <mxCell id="gwwIZ51IinvGWYomJ2mv-5" value="suma=num1+num2+num3" style="rounded=0;whiteSpace=wrap;html=1;" vertex="1" parent="WIyWlLk6GJQsqaUBKTNV-1">
          <mxGeometry x="335" y="310" width="150" height="70" as="geometry" />
        </mxCell>
        <mxCell id="gwwIZ51IinvGWYomJ2mv-15" style="edgeStyle=orthogonalEdgeStyle;rounded=0;orthogonalLoop=1;jettySize=auto;html=1;" edge="1" parent="WIyWlLk6GJQsqaUBKTNV-1" source="gwwIZ51IinvGWYomJ2mv-12" target="gwwIZ51IinvGWYomJ2mv-13">
          <mxGeometry relative="1" as="geometry" />
        </mxCell>
        <mxCell id="gwwIZ51IinvGWYomJ2mv-12" value="&quot;El resultado es:&quot;, suma" style="shape=document;whiteSpace=wrap;html=1;boundedLbl=1;" vertex="1" parent="WIyWlLk6GJQsqaUBKTNV-1">
          <mxGeometry x="350" y="410" width="130" height="70" as="geometry" />
        </mxCell>
        <mxCell id="gwwIZ51IinvGWYomJ2mv-13" value="" style="ellipse;whiteSpace=wrap;html=1;aspect=fixed;fillColor=#000000;strokeColor=#d6b656;" vertex="1" parent="WIyWlLk6GJQsqaUBKTNV-1">
          <mxGeometry x="375" y="510" width="60" height="60" as="geometry" />
        </mxCell>
      </root>
    </mxGraphModel>
  </diagram>
</mxfile>
